<svg width="89" height="46" viewBox="0 0 89 46" fill="none" xmlns="http://www.w3.org/2000/svg">
<g opacity="0.1">
<path d="M23.7966 0H31.1218C28.2822 2.03223 25.9277 4.68945 24.2544 7.77051C22.9246 6.82031 21.5347 5.93945 20.0957 5.14648C21.1367 3.29297 22.3794 1.56543 23.7966 0Z" fill="#E3AD31"/>
<path d="M40.4802 18.6504H35.575C35.575 13.7432 39.5811 9.74902 44.5027 9.74902C49.4246 9.74902 53.4304 13.7432 53.4304 18.6504H48.5251C48.5251 16.4385 46.7212 14.6396 44.5027 14.6396C42.2844 14.6396 40.4802 16.4385 40.4802 18.6504Z" fill="#E3AD31"/>
<path d="M84.9775 41.6533H80.0723C80.0723 36.7461 84.0784 32.752 89 32.752V37.6426C86.7817 37.6426 84.9775 39.4414 84.9775 41.6533Z" fill="#E3AD31"/>
<path d="M72.4033 33.6865C73.7278 34.876 74.9814 36.1475 76.1423 37.501C77.9028 32.0938 82.999 28.1758 89 28.1758V23.2852C81.7019 23.2852 75.3794 27.54 72.4033 33.6865Z" fill="#E3AD31"/>
<path d="M0 37.6367V32.7461C4.92163 32.7461 8.92773 36.7402 8.92773 41.6475H4.02246C4.02246 39.4355 2.21826 37.6367 0 37.6367Z" fill="#E3AD31"/>
<path d="M16.6021 33.6865C13.6206 27.5352 7.2981 23.2803 0 23.2803V28.1709C6.00098 28.1709 11.0972 32.0889 12.8577 37.4961L13.1438 37.1689L13.3774 36.9062L13.5623 36.7021C13.8477 36.3887 14.1375 36.0791 14.4319 35.7744C15.1287 35.0537 15.8506 34.3574 16.6021 33.6865Z" fill="#E3AD31"/>
<path d="M64.7346 7.77051C66.0647 6.82031 67.449 5.93945 68.8933 5.14648C68.5225 4.48047 68.125 3.83203 67.7021 3.20215C66.9446 2.07422 66.1057 1.00488 65.1926 0H57.8672C60.7068 2.03223 63.0615 4.68945 64.7346 7.77051Z" fill="#E3AD31"/>
<path d="M12.1218 0H17.9373C17.218 1.0166 16.5583 2.07617 15.9587 3.16797C14.4382 2.53809 12.874 2.00488 11.2715 1.55371C11.4016 1.30273 11.5342 1.05371 11.6692 0.806641C11.8171 0.535156 11.968 0.266602 12.1218 0Z" fill="#E3AD31"/>
<path d="M20.2537 30.7627C21.5837 29.8115 22.968 28.9424 24.407 28.1543C19.6323 19.6113 10.4866 13.8135 0 13.8135V18.7041C8.74243 18.7041 16.3567 23.5898 20.2537 30.7627Z" fill="#E3AD31"/>
<path d="M33.2312 24.5459C31.6289 24.9922 30.0645 25.5303 28.5493 26.1602C23.0281 16.085 12.3015 9.23828 0 9.23828V4.34766C14.449 4.34766 27.0015 12.5586 33.2312 24.5459Z" fill="#E3AD31"/>
<path d="M55.7688 24.5459C56.396 24.7207 57.0171 24.9102 57.6318 25.1133C58.5881 25.4297 59.5286 25.7793 60.4507 26.1602C65.9719 16.085 76.6985 9.23828 89 9.23828V4.34766C74.551 4.34766 61.9985 12.5586 55.7688 24.5459Z" fill="#E3AD31"/>
<path d="M68.7517 30.7686C67.4216 29.8174 66.0374 28.9424 64.5984 28.1543C69.373 19.6123 78.5134 13.8193 89 13.8193V18.71C80.2576 18.71 72.6487 23.5957 68.7517 30.7686Z" fill="#E3AD31"/>
<path d="M31.6399 14.5029C33.4004 9.09668 38.4963 5.17285 44.4973 5.17285C50.4983 5.17285 55.5999 9.09668 57.355 14.5029C58.5212 13.1553 59.7639 11.8789 61.094 10.6885C58.1179 4.53125 51.801 0.282227 44.5027 0.282227C37.2046 0.282227 30.8877 4.53125 27.9062 10.6836C29.2361 11.873 30.4788 13.1504 31.6399 14.5029Z" fill="#E3AD31"/>
<path d="M77.3518 0.833984C77.4814 1.07324 77.6082 1.31348 77.7339 1.55371C76.1316 2 74.5674 2.53223 73.0466 3.16309C72.447 2.07031 71.7876 1.0166 71.0681 0H76.8838C77.0454 0.275391 77.2004 0.553711 77.3518 0.833984Z" fill="#E3AD31"/>
<path d="M44.5027 27.3447C30.6858 27.3447 18.6077 34.8604 12.1272 45.9951H17.9373C23.8293 37.6807 33.5364 32.2354 44.5027 32.2354C55.469 32.2354 65.1816 37.6807 71.0681 45.9951H76.8782C70.3977 34.8545 58.3196 27.3447 44.5027 27.3447Z" fill="#E3AD31"/>
<path d="M23.802 46C28.9146 40.3652 36.2998 36.8164 44.5027 36.8164C52.7056 36.8164 60.0908 40.3652 65.2034 46H57.8835C54.1118 43.2998 49.4897 41.707 44.5027 41.707C39.5156 41.707 34.8936 43.2998 31.1218 46H23.802Z" fill="#E3AD31"/>
</g>
</svg>
